<?xml version="1.0" standalone="no"?><!DOCTYPE svg PUBLIC "-//W3C//DTD SVG 1.1//EN" "http://www.w3.org/Graphics/SVG/1.1/DTD/svg11.dtd"><svg xmlns:xlink="http://www.w3.org/1999/xlink" version="1.1" class="highcharts-root" style="font-family:&quot;Lucida Grande&quot;, &quot;Lucida Sans Unicode&quot;, Arial, Helvetica, sans-serif;font-size:12px;" xmlns="http://www.w3.org/2000/svg" width="600" height="400" viewBox="0 0 600 400"><desc>Created with Highcharts 7.0.3</desc><defs><clipPath id="highcharts-xywhxux-15"><rect x="0" y="0" width="600" height="400" fill="none"></rect></clipPath></defs><rect fill="#ffffff" class="highcharts-background" x="0" y="0" width="600" height="400" rx="0" ry="0"></rect><g stroke-linejoin="round" class="highcharts-3d-frame highcharts-3d-frame-bottom" data-z-index="-1000"><path fill="none" d="M 35.21179892271044 358.6208816684077 L 563.8782759876768 358.6208816684077 L 556.9091333795122 291.6648761445649 L 42.20497305711024 291.6648761445649 Z" visibility="hidden"></path><path fill="none" d="M 42.956438209259716 291.7028982410303 L 557.0435617907403 291.7028982410303 L 563.9491682329415 358.01480447292874 L 36.050831767058526 358.01480447292874 Z" visibility="visible"></path><path fill="none" d="M 35.21179892271044 358.6208816684077 L 42.20497305711024 291.6648761445649 L 42.956438209259716 291.7028982410303 L 36.050831767058526 358.01480447292874 Z" visibility="hidden"></path><path fill="none" d="M 556.9091333795122 291.6648761445649 L 563.8782759876768 358.6208816684077 L 563.9491682329415 358.01480447292874 L 557.0435617907403 291.7028982410303 Z" visibility="hidden"></path><path fill="none" d="M 563.8782759876768 358.6208816684077 L 35.21179892271044 358.6208816684077 L 36.050831767058526 358.01480447292874 L 563.9491682329415 358.01480447292874 Z" visibility="visible"></path><path fill="none" d="M 42.20497305711024 291.6648761445649 L 556.9091333795122 291.6648761445649 L 557.0435617907403 291.7028982410303 L 42.956438209259716 291.7028982410303 Z" visibility="hidden"></path></g><g stroke-linejoin="round" class="highcharts-3d-frame highcharts-3d-frame-left" data-z-index="-1000"><path fill="none" d="M 35.21179892271044 358.6208816684077 L 36.050831767058526 358.01480447292874 L 42.956438209259716 291.7028982410303 L 42.20497305711024 291.6648761445649 Z" visibility="hidden"></path><path fill="none" d="M 17.616107423307085 70.1010389054062 L 18.50587021626626 70.74474436067106 L 10.202807625798414 137.03297604135184 L 9.203506962439121 137.03297604135184 Z" visibility="visible"></path><path fill="none" d="M 42.20497305711024 291.6648761445649 L 17.616107423307085 70.1010389054062 L 9.203506962439121 137.03297604135184 L 35.21179892271044 358.6208816684077 Z" visibility="hidden"></path><path fill="none" d="M 18.50587021626626 70.74474436067106 L 42.956438209259716 291.7028982410303 L 36.050831767058526 358.01480447292874 L 10.202807625798414 137.03297604135184 Z" visibility="visible"></path><path fill="none" d="M 35.21179892271044 358.6208816684077 L 9.203506962439121 137.03297604135184 L 10.202807625798414 137.03297604135184 L 36.050831767058526 358.01480447292874 Z" visibility="visible"></path><path fill="none" d="M 17.616107423307085 70.1010389054062 L 42.20497305711024 291.6648761445649 L 42.956438209259716 291.7028982410303 L 18.50587021626626 70.74474436067106 Z" visibility="hidden"></path></g><g stroke-linejoin="round" class="highcharts-3d-frame highcharts-3d-frame-right" data-z-index="-1000"><path fill="none" d="M 556.9091333795122 291.6648761445649 L 557.0435617907403 291.7028982410303 L 563.9491682329415 358.01480447292874 L 563.8782759876768 358.6208816684077 Z" visibility="hidden"></path><path fill="none" d="M 589.7971923742016 137.03297604135184 L 589.7971923742016 137.03297604135184 L 581.4941297837338 70.74474436067106 L 581.4135011932678 70.1010389054062 Z" visibility="hidden"></path><path fill="none" d="M 589.7971923742016 137.03297604135184 L 563.9491682329415 358.01480447292874 L 557.0435617907403 291.7028982410303 L 581.4941297837338 70.74474436067106 Z" visibility="hidden"></path><path fill="none" d="M 563.8782759876768 358.6208816684077 L 589.7971923742016 137.03297604135184 L 581.4135011932678 70.1010389054062 L 556.9091333795122 291.6648761445649 Z" visibility="hidden"></path><path fill="none" d="M 589.7971923742016 137.03297604135184 L 563.8782759876768 358.6208816684077 L 563.9491682329415 358.01480447292874 L 589.7971923742016 137.03297604135184 Z" visibility="hidden"></path><path fill="none" d="M 556.9091333795122 291.6648761445649 L 581.4135011932678 70.1010389054062 L 581.4941297837338 70.74474436067106 L 557.0435617907403 291.7028982410303 Z" visibility="hidden"></path></g><g stroke-linejoin="round" class="highcharts-3d-frame highcharts-3d-frame-back" data-z-index="-1000"><path fill="none" d="M 556.9091333795122 291.6648761445649 L 42.20497305711024 291.6648761445649 L 42.956438209259716 291.7028982410303 L 557.0435617907403 291.7028982410303 Z" visibility="hidden"></path><path fill="none" d="M 17.616107423307085 70.1010389054062 L 581.4135011932678 70.1010389054062 L 581.4941297837338 70.74474436067106 L 18.50587021626626 70.74474436067106 Z" visibility="visible"></path><path fill="none" d="M 42.20497305711024 291.6648761445649 L 17.616107423307085 70.1010389054062 L 18.50587021626626 70.74474436067106 L 42.956438209259716 291.7028982410303 Z" visibility="hidden"></path><path fill="none" d="M 581.4135011932678 70.1010389054062 L 556.9091333795122 291.6648761445649 L 557.0435617907403 291.7028982410303 L 581.4941297837338 70.74474436067106 Z" visibility="hidden"></path><path fill="none" d="M 18.50587021626626 70.74474436067106 L 581.4941297837338 70.74474436067106 L 557.0435617907403 291.7028982410303 L 42.956438209259716 291.7028982410303 Z" visibility="visible"></path><path fill="none" d="M 42.20497305711024 291.6648761445649 L 556.9091333795122 291.6648761445649 L 581.4135011932678 70.1010389054062 L 17.616107423307085 70.1010389054062 Z" visibility="hidden"></path></g><rect fill="none" class="highcharts-plot-background" x="10" y="53" width="580" height="332"></rect><rect fill="none" class="highcharts-plot-border" data-z-index="1" x="10" y="53" width="580" height="332"></rect><g class="highcharts-series-group" data-z-index="3"><g data-z-index="0.1" class="highcharts-series highcharts-series-0 highcharts-pie-series " transform="translate(10,53) scale(1 1)"><path fill="rgb(230,57,57)" d="M 176.2403668654524 241.480944181605 L 176.2403668654524 260.04249718775185 L 290 184.56155300614688 L 290 166 Z" data-z-index="20.163647305236008" transform="translate(0,0)" class="0 highcharts-3d-side highcharts-point highcharts-color-0"></path><path fill="rgb(219,230,104)" d="M 260.7848468907653 57.64300938840175 L 260.7848468907653 76.20456239454862 L 290 184.56155300614688 L 290 166 Z" data-z-index="39.49905808426557" transform="translate(0,0)" class="0 highcharts-3d-side highcharts-point highcharts-color-3"></path><path fill="rgb(219,230,104)" d="M 289.9377590616397 55.69135091465948 L 289.9377590616397 74.25290392080635 L 290 184.56155300614688 L 290 166 Z" data-z-index="18650.509058084273" transform="translate(0,0)" class="0 highcharts-3d-side highcharts-point highcharts-color-3"></path><path fill="rgb(230,188,54)" d="M 153.27756323127502 112.88232269751433 L 153.27756323127502 131.4438757036612 L 290 184.56155300614688 L 290 166 Z" data-z-index="18651.49905808424" transform="translate(0,0)" class="0 highcharts-3d-side highcharts-point highcharts-color-2"></path><path fill="rgb(219,230,104)" d="M 260.7848468907653 57.64300938840175 C 270.9134570265701 56.277574199444 279.62671872278855 55.69425988340981 289.9377590616397 55.69135091465948 L 289.9377590616397 74.25290392080635 C 279.62671872278855 74.25581288955668 270.9134570265701 74.83912720559087 260.7848468907653 76.20456239454862 Z" data-z-index="18838.898038468964" transform="translate(0,0)" class="0 highcharts-3d-side highcharts-point highcharts-color-3"></path><path fill="rgb(219,230,104)" d="M 290 166 C 290 166 290 166 290 166 L 290 184.56155300614688 C 290 184.56155300614688 290 184.56155300614688 290 184.56155300614688 Z" data-z-index="18838.898038468964" transform="translate(0,0)" class="0 highcharts-3d-side highcharts-point highcharts-color-3"></path><path fill="rgb(230,188,54)" d="M 260.7833144929691 57.64321597614837 L 260.7833144929691 76.20476898229523 L 290 184.56155300614688 L 290 166 Z" data-z-index="105770.50905808427" transform="translate(0,0)" class="0 highcharts-3d-side highcharts-point highcharts-color-2"></path><path fill="rgb(230,113,76)" d="M 176.23929940939075 241.4801397757508 L 176.23929940939075 260.04169278189767 L 290 184.56155300614688 L 290 166 Z" data-z-index="105771.49905808423" transform="translate(0,0)" class="0 highcharts-3d-side highcharts-point highcharts-color-1"></path><path fill="rgb(230,188,54)" d="M 153.27756323127502 112.88232269751433 C 176.5196428850723 82.97030538787132 213.37090617228725 64.03521734235437 260.7833144929691 57.64321597614837 L 260.7833144929691 76.20476898229523 C 213.37090617228725 82.59677034850124 176.5196428850723 101.53185839401819 153.27756323127502 131.4438757036612 Z" data-z-index="106838.89803846895" transform="translate(0,0)" class="0 highcharts-3d-side highcharts-point highcharts-color-2"></path><path fill="rgb(230,188,54)" d="M 290 166 C 290 166 290 166 290 166 L 290 184.56155300614688 C 290 184.56155300614688 290 184.56155300614688 290 184.56155300614688 Z" data-z-index="106838.89803846895" transform="translate(0,0)" class="0 highcharts-3d-side highcharts-point highcharts-color-2"></path><path fill="rgb(230,113,76)" d="M 153.27681204071473 112.88328947379199 L 153.27681204071473 131.44484247993887 L 290 184.56155300614688 L 290 166 Z" data-z-index="230114.50905808428" transform="translate(0,0)" class="0 highcharts-3d-side highcharts-point highcharts-color-1"></path><path fill="rgb(230,57,57)" d="M 289.96822698022356 55.69134442285316 L 289.96822698022356 74.25289742900003 L 290 184.56155300614688 L 290 166 Z" data-z-index="230115.4990580843" transform="translate(0,0)" class="0 highcharts-3d-side highcharts-point highcharts-color-0"></path><path fill="rgb(230,113,76)" d="M 176.23929940939075 241.4801397757508 C 147.95616588167096 220.1665260584851 134 195.22734936257874 134 166 L 134 184.56155300614688 C 134 165.07656639910323 140.00785828156887 148.52208277647082 153.27681204071473 131.44484247993887 L 153.27681204071473 112.88328947379199 C 140.00785828156887 129.96052977032394 134 146.51501339295635 134 166 L 134 184.56155300614688 C 134 213.78890236872562 147.95616588167096 238.72807906463197 176.23929940939075 260.04169278189767 Z" data-z-index="232438.89803846896" transform="translate(0,0)" class="0 highcharts-3d-side highcharts-point highcharts-color-1"></path><path fill="rgb(230,113,76)" d="M 290 166 C 290 166 290 166 290 166 L 290 184.56155300614688 C 290 184.56155300614688 290 184.56155300614688 290 184.56155300614688 Z" data-z-index="232438.89803846896" transform="translate(0,0)" class="0 highcharts-3d-side highcharts-point highcharts-color-1"></path><path fill="rgb(230,57,57)" d="M 446 166 C 446 226.92178951319812 376.1564209736038 276.3086578651014 290 276.3086578651014 C 245.17784137598275 276.3086578651014 206.9108411389758 264.5931477930491 176.2403668654524 241.480944181605 L 176.2403668654524 260.04249718775185 C 235.19465139992926 304.4683973475054 333.91846443579584 306.68873539520916 396.7461749623523 265.00176102087937 C 429.431766765985 243.3144606798634 446 216.25560531660858 446 184.56155300614688 Z" data-z-index="232439.898038469" transform="translate(0,0)" class="0 highcharts-3d-side highcharts-point highcharts-color-0"></path><path fill="rgb(230,57,57)" d="M 290 166 C 290 166 290 166 290 166 C 290 166 290 166 290 166 C 290 166 290 166 290 166 L 290 184.56155300614688 C 290 184.56155300614688 290 184.56155300614688 290 184.56155300614688 C 290 184.56155300614688 290 184.56155300614688 290 184.56155300614688 C 290 184.56155300614688 290 184.56155300614688 290 184.56155300614688 Z" data-z-index="232439.898038469" transform="translate(0,0)" class="0 highcharts-3d-side highcharts-point highcharts-color-0"></path><g data-z-index="31416026.53589793" stroke="#ff5252" stroke-width="1" stroke-linejoin="round"><path fill="#ff5252" d="M 289.96822698022356 55.69134442285316 C 376.1246461668237 55.67893628680817 445.98244901006495 105.05574483266156 445.99999676434356 165.97753308225728 C 446.0175445186222 226.899321331853 376.1881922063766 276.29624744110185 290.0317730197765 276.30865557714685 C 245.19844407825306 276.31511241518757 206.91848529237808 264.5989081614182 176.2403668654524 241.480944181605 L 290 166 C 290 166 290 166 290 166 C 290 166 290 166 290 166 C 290 166 290 166 290 166 Z" data-z-index="314160.2653589793" transform="translate(0,0)" class="highcharts-point highcharts-color-0"></path></g><g data-z-index="31416026.53589793" stroke="#ff8a65" stroke-width="1" stroke-linejoin="round"><path fill="#ff8a65" d="M 176.23929940939075 241.4801397757508 C 129.10065930951345 205.9573867801779 120.10451654387086 155.5762757988595 153.27681204071473 112.88328947379199 L 290 166 C 290 166 290 166 290 166 Z" data-z-index="314160.2653589793" transform="translate(0,0)" class="highcharts-point highcharts-color-1"></path></g><g data-z-index="31416026.53589793" stroke="#ffd54f" stroke-width="1" stroke-linejoin="round"><path fill="#ffd54f" d="M 153.27756323127502 112.88232269751433 C 176.5196428850723 82.97030538787132 213.37090617228725 64.03521734235437 260.7833144929691 57.64321597614837 L 290 166 C 290 166 290 166 290 166 Z" data-z-index="314160.2653589793" transform="translate(0,0)" class="highcharts-point highcharts-color-2"></path></g><g data-z-index="31416026.53589793" stroke="#f4ff81" stroke-width="1" stroke-linejoin="round"><path fill="#f4ff81" d="M 260.7848468907653 57.64300938840175 C 270.9134570265701 56.277574199444 279.62671872278855 55.69425988340981 289.9377590616397 55.69135091465948 L 290 166 C 290 166 290 166 290 166 Z" data-z-index="314160.2653589793" transform="translate(0,0)" class="highcharts-point highcharts-color-3"></path></g></g><g data-z-index="0.1" class="highcharts-markers highcharts-series-0 highcharts-pie-series " transform="translate(10,53) scale(1 1)"></g></g><text x="300" text-anchor="middle" class="highcharts-title" data-z-index="4" style="color:#333333;font-size:18px;fill:#333333;" y="24"><tspan>Browser market shares at a specific website, 2014</tspan></text><text x="300" text-anchor="middle" class="highcharts-subtitle" data-z-index="4" style="color:#666666;fill:#666666;" y="52"></text><g data-z-index="6" class="highcharts-data-labels highcharts-series-0 highcharts-pie-series " visibility="visible" transform="translate(10,53) scale(1 1)"><path fill="none" class="highcharts-data-label-connector highcharts-color-0" stroke="#ff5252" stroke-width="1" d="M 472.4580221223813 221.71938966295687 C 467.4580221223813 221.71938966295687 444.18277711490884 214.57072763153087 438.67624936080495 212.18784028772217 L 433.16972160670105 209.80495294391346"></path><path fill="none" class="highcharts-data-label-connector highcharts-color-1" stroke="#ff8a65" stroke-width="1" d="M 99.8334733186064 183.58855868878254 C 104.8334733186064 183.58855868878254 123.32473017916772 181.33256048462508 129.27741838705458 180.58056108323925 L 135.23010659494145 179.82856168185342"></path><path fill="none" class="highcharts-data-label-connector highcharts-color-2" stroke="#ffd54f" stroke-width="1" d="M 137.65490791633118 52.48601919210499 C 142.65490791633118 52.48601919210499 191.2520776148645 67.04832509085404 194.77878912861934 71.90242705710372 L 198.30550064237417 76.75652902335341"></path><path fill="none" class="highcharts-data-label-connector highcharts-color-3" stroke="#f4ff81" stroke-width="1" d="M 162.1844392150535 26.313429317349502 C 167.1844392150535 26.313429317349502 274.18980336248967 44.233544680204936 274.75445324240076 50.20691646782342 L 275.31910312231184 56.1802882554419"></path><g class="highcharts-label highcharts-data-label highcharts-data-label-color-0 " data-z-index="1" transform="translate(477,212)"><text x="5" data-z-index="1" style="font-size:11px;font-weight:bold;color:#000000;cursor:pointer;fill:#000000;" y="16"><tspan x="5" y="16" class="highcharts-text-outline" fill="#FFFFFF" stroke="#FFFFFF" stroke-width="2px" stroke-linejoin="round" style="">Barcelona</tspan><tspan x="5" y="16">Barcelona</tspan></text></g><g class="highcharts-label highcharts-data-label highcharts-data-label-color-1 " data-z-index="1" transform="translate(26,174)"><text x="5" data-z-index="1" style="font-size:11px;font-weight:bold;color:#000000;cursor:pointer;fill:#000000;" y="16"><tspan x="5" y="16" class="highcharts-text-outline" fill="#FFFFFF" stroke="#FFFFFF" stroke-width="2px" stroke-linejoin="round" style="">Tarragona</tspan><tspan x="5" y="16">Tarragona</tspan></text></g><g class="highcharts-label highcharts-data-label highcharts-data-label-color-2 " data-z-index="1" transform="translate(84,42)"><text x="5" data-z-index="1" style="font-size:11px;font-weight:bold;color:#000000;cursor:pointer;fill:#000000;" y="16"><tspan x="5" y="16" class="highcharts-text-outline" fill="#FFFFFF" stroke="#FFFFFF" stroke-width="2px" stroke-linejoin="round" style="">Girona</tspan><tspan x="5" y="16">Girona</tspan></text></g><g class="highcharts-label highcharts-data-label highcharts-data-label-color-3 " data-z-index="1" transform="translate(113,16)"><text x="5" data-z-index="1" style="font-size:11px;font-weight:bold;color:#000000;cursor:pointer;fill:#000000;" y="16"><tspan x="5" y="16" class="highcharts-text-outline" fill="#FFFFFF" stroke="#FFFFFF" stroke-width="2px" stroke-linejoin="round" style="">Lleida</tspan><tspan x="5" y="16">Lleida</tspan></text></g></g><g class="highcharts-legend" data-z-index="7"><rect fill="none" class="highcharts-legend-box" rx="0" ry="0" x="0" y="0" width="8" height="8" visibility="hidden"></rect><g data-z-index="1"><g></g></g></g><text x="590" class="highcharts-credits" text-anchor="end" data-z-index="8" style="cursor:pointer;color:#999999;font-size:9px;fill:#999999;" y="395">Highcharts.com</text><g stroke-linejoin="round" class="highcharts-3d-frame highcharts-3d-frame-top" data-z-index="1000"><path fill="none" d="M 17.616107423307085 70.1010389054062 L 581.4135011932678 70.1010389054062 L 589.7971923742016 137.03297604135184 L 9.203506962439121 137.03297604135184 Z" visibility="hidden"></path><path fill="none" d="M 10.202807625798414 137.03297604135184 L 589.7971923742016 137.03297604135184 L 581.4941297837338 70.74474436067106 L 18.50587021626626 70.74474436067106 Z" visibility="hidden"></path><path fill="none" d="M 17.616107423307085 70.1010389054062 L 9.203506962439121 137.03297604135184 L 10.202807625798414 137.03297604135184 L 18.50587021626626 70.74474436067106 Z" visibility="hidden"></path><path fill="none" d="M 589.7971923742016 137.03297604135184 L 581.4135011932678 70.1010389054062 L 581.4941297837338 70.74474436067106 L 589.7971923742016 137.03297604135184 Z" visibility="hidden"></path><path fill="none" d="M 9.203506962439121 137.03297604135184 L 589.7971923742016 137.03297604135184 L 589.7971923742016 137.03297604135184 L 10.202807625798414 137.03297604135184 Z" visibility="hidden"></path><path fill="none" d="M 581.4135011932678 70.1010389054062 L 17.616107423307085 70.1010389054062 L 18.50587021626626 70.74474436067106 L 581.4941297837338 70.74474436067106 Z" visibility="hidden"></path></g><g stroke-linejoin="round" class="highcharts-3d-frame highcharts-3d-frame-front" data-z-index="1000"><path fill="none" d="M 35.21179892271044 358.6208816684077 L 563.8782759876768 358.6208816684077 L 563.9491682329415 358.01480447292874 L 36.050831767058526 358.01480447292874 Z" visibility="hidden"></path><path fill="none" d="M 589.7971923742016 137.03297604135184 L 9.203506962439121 137.03297604135184 L 10.202807625798414 137.03297604135184 L 589.7971923742016 137.03297604135184 Z" visibility="hidden"></path><path fill="none" d="M 9.203506962439121 137.03297604135184 L 35.21179892271044 358.6208816684077 L 36.050831767058526 358.01480447292874 L 10.202807625798414 137.03297604135184 Z" visibility="hidden"></path><path fill="none" d="M 563.8782759876768 358.6208816684077 L 589.7971923742016 137.03297604135184 L 589.7971923742016 137.03297604135184 L 563.9491682329415 358.01480447292874 Z" visibility="hidden"></path><path fill="none" d="M 589.7971923742016 137.03297604135184 L 10.202807625798414 137.03297604135184 L 36.050831767058526 358.01480447292874 L 563.9491682329415 358.01480447292874 Z" visibility="hidden"></path><path fill="none" d="M 563.8782759876768 358.6208816684077 L 35.21179892271044 358.6208816684077 L 9.203506962439121 137.03297604135184 L 589.7971923742016 137.03297604135184 Z" visibility="hidden"></path></g></svg>