<?xml version="1.0" encoding="utf-8"?>
<!-- Generator: Adobe Illustrator 21.0.0, SVG Export Plug-In . SVG Version: 6.00 Build 0)  -->
<svg version="1.1" id="Layer_1" xmlns="http://www.w3.org/2000/svg" xmlns:xlink="http://www.w3.org/1999/xlink" x="0px" y="0px"
	 viewBox="0 0 160 50.6" style="enable-background:new 0 0 160 50.6;" xml:space="preserve">
<style type="text/css">
	.st0{fill:#FBD212;}
	.st1{fill:#13100A;stroke:#12100C;stroke-width:0.25;stroke-miterlimit:10;}
	.st2{fill:#13100A;}
</style>
<g>
	<rect class="st0" width="160" height="50.6"/>
	<g>
		<g>
			<g>
				<path class="st1" d="M47.6,40.6c-1.1,0-1.8-0.3-2.4-1l0.4-0.4c0.7,0.7,1.2,0.9,2.1,0.9c1.1,0,1.9-0.6,1.9-1.5
					c0-0.4-0.1-0.8-0.4-1c-0.3-0.2-0.5-0.3-1.1-0.4l-0.8-0.1c-0.6-0.1-1-0.3-1.3-0.5c-0.4-0.3-0.6-0.8-0.6-1.3c0-1.2,0.9-2,2.3-2
					c0.9,0,1.5,0.2,2.1,0.8l-0.4,0.4c-0.4-0.4-0.9-0.7-1.8-0.7c-1.1,0-1.7,0.6-1.7,1.5c0,0.4,0.1,0.7,0.4,0.9
					c0.3,0.2,0.7,0.4,1.1,0.4l0.8,0.1c0.7,0.1,1,0.2,1.3,0.5c0.4,0.3,0.6,0.8,0.6,1.4C50,39.8,49.1,40.6,47.6,40.6z"/>
				<path class="st1" d="M51.6,38.2c0,1.2,0.6,1.9,1.6,1.9c0.6,0,0.9-0.2,1.4-0.6l0.4,0.3c-0.5,0.5-1,0.8-1.8,0.8
					c-1.4,0-2.1-0.9-2.1-2.5c0-1.6,0.7-2.5,2-2.5c1.2,0,2,0.9,2,2.4v0.2L51.6,38.2L51.6,38.2z M54.4,36.9c-0.2-0.5-0.7-0.8-1.3-0.8
					c-0.6,0-1.1,0.3-1.3,0.8c-0.1,0.3-0.2,0.5-0.2,0.9h2.9C54.5,37.3,54.5,37.2,54.4,36.9z"/>
				<path class="st1" d="M58,43c-0.7,0-1.1-0.2-1.6-0.7l0.3-0.3c0.4,0.3,0.7,0.5,1.3,0.5c1,0,1.5-0.7,1.5-1.7v-0.9
					c-0.4,0.6-0.9,0.7-1.5,0.7c-0.5,0-0.9-0.2-1.2-0.4c-0.5-0.5-0.6-1.3-0.6-2.1c0-0.8,0.1-1.6,0.6-2.1c0.3-0.3,0.7-0.4,1.2-0.4
					c0.6,0,1,0.1,1.5,0.7v-0.6h0.5v5.2C60.1,42.1,59.3,43,58,43z M58.1,36c-1.2,0-1.4,1-1.4,2.1c0,1,0.2,2.1,1.4,2.1
					c1.2,0,1.4-1,1.4-2.1C59.5,37.1,59.3,36,58.1,36z"/>
				<path class="st1" d="M65,40.6V40c-0.4,0.4-0.9,0.6-1.4,0.6c-0.6,0-1-0.2-1.3-0.5c-0.3-0.3-0.5-0.8-0.5-1.4v-3.1h0.5v3
					c0,0.9,0.5,1.5,1.4,1.5c0.9,0,1.4-0.5,1.4-1.5v-3h0.5v4.9H65z"/>
				<path class="st1" d="M70.1,36.4c-0.3-0.3-0.5-0.4-0.9-0.4c-0.8,0-1.3,0.7-1.3,1.5v3h-0.5v-4.9h0.5v0.7c0.3-0.5,0.9-0.7,1.4-0.7
					c0.5,0,0.8,0.1,1.2,0.5L70.1,36.4z"/>
				<path class="st1" d="M71.2,33.9v-0.6h0.6v0.6H71.2z M71.3,40.6v-4.9h0.5v4.9H71.3z"/>
				<path class="st1" d="M76.6,40.6v-0.6c-0.4,0.6-0.9,0.7-1.5,0.7c-0.5,0-0.9-0.2-1.2-0.4c-0.5-0.5-0.6-1.3-0.6-2.1
					c0-0.8,0.1-1.6,0.6-2.1c0.3-0.3,0.7-0.4,1.2-0.4c0.6,0,1,0.1,1.5,0.7v-3h0.5v7.3L76.6,40.6L76.6,40.6z M75.2,36
					c-1.2,0-1.4,1-1.4,2.1c0,1,0.2,2.1,1.4,2.1s1.4-1,1.4-2.1C76.6,37.1,76.4,36,75.2,36z"/>
				<path class="st1" d="M81.8,40.6v-0.5c-0.4,0.4-0.8,0.6-1.5,0.6c-0.7,0-1.1-0.1-1.4-0.4c-0.2-0.2-0.4-0.6-0.4-1
					c0-0.9,0.6-1.4,1.7-1.4h1.6v-0.6c0-0.8-0.4-1.2-1.4-1.2c-0.7,0-1,0.2-1.4,0.6l-0.4-0.3c0.4-0.6,0.9-0.8,1.7-0.8
					c1.3,0,1.9,0.6,1.9,1.6v3.4C82.3,40.6,81.8,40.6,81.8,40.6z M81.8,38.2h-1.5c-0.8,0-1.3,0.3-1.3,1s0.4,1,1.3,1
					c0.4,0,0.9,0,1.2-0.4c0.2-0.2,0.3-0.5,0.3-0.9L81.8,38.2L81.8,38.2z"/>
				<path class="st1" d="M87,40.6v-0.6c-0.4,0.6-0.9,0.7-1.5,0.7c-0.5,0-0.9-0.2-1.2-0.4c-0.5-0.5-0.6-1.3-0.6-2.1
					c0-0.8,0.1-1.6,0.6-2.1c0.3-0.3,0.7-0.4,1.2-0.4c0.6,0,1,0.1,1.5,0.7v-3h0.5v7.3L87,40.6L87,40.6z M85.6,36
					c-1.2,0-1.4,1-1.4,2.1c0,1,0.2,2.1,1.4,2.1c1.2,0,1.4-1,1.4-2.1C87,37.1,86.8,36,85.6,36z"/>
				<path class="st1" d="M94.7,40.6v-0.6c-0.4,0.6-0.9,0.7-1.5,0.7c-0.5,0-0.9-0.2-1.2-0.4c-0.5-0.5-0.6-1.3-0.6-2.1
					c0-0.8,0.1-1.6,0.6-2.1c0.3-0.3,0.7-0.4,1.2-0.4c0.6,0,1,0.1,1.5,0.7v-3h0.5v7.3L94.7,40.6L94.7,40.6z M93.3,36
					c-1.2,0-1.4,1-1.4,2.1c0,1,0.2,2.1,1.4,2.1c1.2,0,1.4-1,1.4-2.1C94.7,37.1,94.5,36,93.3,36z"/>
				<path class="st1" d="M97.2,38.2c0,1.2,0.6,1.9,1.6,1.9c0.6,0,0.9-0.2,1.4-0.6l0.4,0.3c-0.5,0.5-1,0.8-1.8,0.8
					c-1.4,0-2.1-0.9-2.1-2.5c0-1.6,0.7-2.5,2-2.5c1.2,0,2,0.9,2,2.4v0.2L97.2,38.2L97.2,38.2z M100,36.9c-0.2-0.5-0.7-0.8-1.3-0.8
					s-1.1,0.3-1.3,0.8c-0.1,0.3-0.2,0.5-0.2,0.9h2.9C100.1,37.3,100.1,37.2,100,36.9z"/>
				<path class="st1" d="M106.4,40.6c-1.3,0-2.2-1-2.2-2.5c0-1.6,0.8-2.5,2.2-2.5c0.7,0,1.1,0.2,1.6,0.8l-0.4,0.3
					c-0.4-0.5-0.7-0.6-1.3-0.6c-0.6,0-1,0.2-1.3,0.7c-0.2,0.4-0.3,0.7-0.3,1.4c0,0.7,0.1,1.1,0.3,1.4c0.3,0.4,0.8,0.7,1.3,0.7
					c0.5,0,0.8-0.2,1.3-0.6l0.4,0.3C107.5,40.4,107.1,40.6,106.4,40.6z"/>
				<path class="st1" d="M112.3,40.1c-0.3,0.3-0.8,0.5-1.4,0.5c-0.6,0-1-0.2-1.4-0.5c-0.5-0.5-0.6-1.3-0.6-2c0-0.7,0.1-1.5,0.6-2
					c0.3-0.3,0.8-0.5,1.4-0.5s1,0.2,1.4,0.5c0.5,0.5,0.6,1.3,0.6,2C112.9,38.8,112.8,39.6,112.3,40.1z M111.9,36.5
					c-0.3-0.3-0.6-0.4-1-0.4c-0.4,0-0.8,0.2-1,0.4c-0.4,0.4-0.4,1.1-0.4,1.6c0,0.6,0,1.2,0.4,1.6c0.3,0.3,0.6,0.4,1,0.4
					c0.4,0,0.8-0.2,1-0.4c0.4-0.4,0.4-1.1,0.4-1.6C112.4,37.5,112.3,36.9,111.9,36.5z"/>
				<path class="st1" d="M117.6,40.6v-3c0-0.9-0.5-1.5-1.4-1.5c-0.9,0-1.4,0.5-1.4,1.5v3h-0.5v-4.9h0.5v0.6c0.4-0.4,0.9-0.6,1.4-0.6
					c0.6,0,1,0.2,1.3,0.5c0.3,0.3,0.5,0.8,0.5,1.4v3.1H117.6z"/>
				<path class="st1" d="M120.5,36v4.5H120V36h-0.7v-0.4h0.7v-1.1c0-0.7,0.4-1.3,1.2-1.3h0.4v0.5h-0.4c-0.5,0-0.8,0.3-0.8,0.8v1.1
					h1.1V36C121.6,36,120.5,36,120.5,36z"/>
				<path class="st1" d="M122.7,33.9v-0.6h0.6v0.6H122.7z M122.8,40.6v-4.9h0.5v4.9H122.8z"/>
				<path class="st1" d="M127.9,40.6v-0.5c-0.4,0.4-0.8,0.6-1.5,0.6c-0.7,0-1.1-0.1-1.4-0.4c-0.2-0.2-0.4-0.6-0.4-1
					c0-0.9,0.6-1.4,1.7-1.4h1.6v-0.6c0-0.8-0.4-1.2-1.4-1.2c-0.7,0-1,0.2-1.4,0.6l-0.4-0.3c0.4-0.6,0.9-0.8,1.7-0.8
					c1.3,0,1.9,0.6,1.9,1.6v3.4C128.4,40.6,127.9,40.6,127.9,40.6z M127.9,38.2h-1.5c-0.8,0-1.3,0.3-1.3,1s0.4,1,1.3,1
					c0.4,0,0.9,0,1.2-0.4c0.2-0.2,0.3-0.5,0.3-0.9L127.9,38.2L127.9,38.2z"/>
				<path class="st1" d="M133.4,40.6v-3c0-0.9-0.5-1.5-1.4-1.5c-0.9,0-1.4,0.5-1.4,1.5v3h-0.5v-4.9h0.5v0.6c0.4-0.4,0.9-0.6,1.4-0.6
					c0.6,0,1,0.2,1.3,0.5c0.3,0.3,0.5,0.8,0.5,1.4v3.1H133.4z"/>
				<path class="st1" d="M135.2,40.6v-0.5l3-4h-2.8v-0.5h3.3v0.5l-3,4h3v0.5L135.2,40.6L135.2,40.6z"/>
				<path class="st1" d="M143,40.6v-0.5c-0.4,0.4-0.8,0.6-1.5,0.6c-0.7,0-1.1-0.1-1.4-0.4c-0.2-0.2-0.4-0.6-0.4-1
					c0-0.9,0.6-1.4,1.7-1.4h1.6v-0.6c0-0.8-0.4-1.2-1.4-1.2c-0.7,0-1,0.2-1.4,0.6l-0.4-0.3c0.4-0.6,0.9-0.8,1.7-0.8
					c1.3,0,1.9,0.6,1.9,1.6v3.4C143.5,40.6,143,40.6,143,40.6z M143,38.2h-1.5c-0.8,0-1.3,0.3-1.3,1s0.4,1,1.3,1
					c0.4,0,0.9,0,1.2-0.4c0.2-0.2,0.3-0.5,0.3-0.9L143,38.2L143,38.2z"/>
			</g>
		</g>
		<path class="st2" d="M120.2,14h2.7v7.7c0,0.9,0.1,1.5,0.3,1.9c0.3,0.7,1,1.1,2.1,1.1c1.1,0,1.8-0.4,2.1-1.1c0.2-0.4,0.3-1,0.3-1.9
			V14h2.7v7.7c0,1.3-0.2,2.4-0.6,3.1c-0.8,1.4-2.3,2-4.4,2c-2.2,0-3.7-0.7-4.5-2c-0.4-0.7-0.6-1.8-0.6-3.1L120.2,14 M115.1,17.9
			c-0.2-0.9-0.7-1.5-1.5-1.8c-0.4-0.2-0.9-0.3-1.4-0.3c-1,0-1.9,0.4-2.5,1.2c-0.7,0.8-1,1.9-1,3.4c0,1.5,0.4,2.6,1.1,3.3
			c0.7,0.6,1.5,1,2.4,1c0.9,0,1.6-0.3,2.2-0.8c0.6-0.5,0.9-1.2,1-2h-2.9v-2.1h5.3v6.7H116l-0.3-1.6c-0.5,0.6-1,1-1.4,1.3
			c-0.7,0.4-1.6,0.6-2.6,0.6c-1.7,0-3-0.6-4.1-1.7c-1.1-1.2-1.7-2.7-1.7-4.8c0-2,0.6-3.7,1.7-4.9c1.1-1.2,2.6-1.8,4.5-1.8
			c1.6,0,2.9,0.4,3.9,1.2c1,0.8,1.5,1.8,1.7,3L115.1,17.9L115.1,17.9z M104.2,16.2h-6.7v2.7h6.1v2.2h-6.1v3.2h7v2.3H95V14h9.3V16.2z
			 M85.1,22.7c0.1,0.6,0.2,1,0.5,1.3c0.4,0.5,1.2,0.8,2.2,0.8c0.6,0,1.1-0.1,1.5-0.2c0.7-0.3,1.1-0.7,1.1-1.5c0-0.4-0.2-0.7-0.5-1
			c-0.4-0.2-0.9-0.4-1.7-0.6l-1.3-0.3c-1.3-0.3-2.2-0.6-2.7-1c-0.8-0.6-1.3-1.5-1.3-2.7c0-1.1,0.4-2.1,1.2-2.8
			c0.8-0.7,2-1.1,3.6-1.1c1.3,0,2.5,0.4,3.4,1.1c0.9,0.7,1.4,1.7,1.5,3.1H90c0-0.8-0.4-1.3-1-1.6c-0.4-0.2-0.9-0.3-1.5-0.3
			c-0.7,0-1.2,0.1-1.6,0.4c-0.4,0.3-0.6,0.7-0.6,1.1c0,0.5,0.2,0.8,0.6,1c0.3,0.1,0.8,0.3,1.6,0.5l2.2,0.5c1,0.2,1.7,0.5,2.2,0.9
			c0.8,0.6,1.1,1.4,1.1,2.6c0,1.1-0.4,2.1-1.3,2.9c-0.9,0.8-2.1,1.1-3.7,1.1c-1.6,0-2.9-0.4-3.9-1.1c-0.9-0.8-1.4-1.8-1.4-3.1
			L85.1,22.7L85.1,22.7z M79.3,25.4c-1,1-2.3,1.5-4.1,1.5S72,26.4,71,25.4c-1.3-1.2-1.9-2.9-1.9-5.2c0-2.3,0.6-4,1.9-5.2
			c1-1,2.3-1.5,4.1-1.5s3.2,0.5,4.1,1.5c1.3,1.2,1.9,2.9,1.9,5.2C81.2,22.5,80.6,24.2,79.3,25.4 M77.6,23.5c0.6-0.8,0.9-1.9,0.9-3.3
			c0-1.4-0.3-2.5-0.9-3.3c-0.6-0.8-1.4-1.2-2.5-1.2c-1,0-1.9,0.4-2.5,1.2c-0.6,0.8-0.9,1.9-0.9,3.3c0,1.4,0.3,2.5,0.9,3.3
			c0.6,0.8,1.5,1.2,2.5,1.2C76.2,24.7,77,24.3,77.6,23.5 M65.2,14.3c0.5,0.2,0.9,0.5,1.2,0.9c0.3,0.3,0.5,0.7,0.7,1.1
			c0.2,0.4,0.2,0.8,0.2,1.3c0,0.6-0.2,1.2-0.5,1.8c-0.3,0.6-0.8,1-1.5,1.2c0.6,0.2,1,0.6,1.2,1c0.2,0.4,0.4,1.1,0.4,2v0.8
			c0,0.6,0,1,0.1,1.2c0.1,0.3,0.2,0.6,0.5,0.7v0.3h-2.9c-0.1-0.3-0.1-0.5-0.2-0.7c-0.1-0.4-0.1-0.7-0.1-1.1l0-1.2
			c0-0.8-0.2-1.3-0.4-1.6c-0.3-0.3-0.8-0.4-1.6-0.4h-2.7v4.9H57V14h6.2C64,14,64.7,14.1,65.2,14.3 M59.5,16.2v3.4h3
			c0.6,0,1-0.1,1.3-0.2c0.5-0.2,0.8-0.7,0.8-1.4c0-0.8-0.3-1.3-0.8-1.5c-0.3-0.1-0.7-0.2-1.3-0.2H59.5z M53.8,21.1
			C53,21.7,52,22,50.6,22h-2.7v4.5h-2.6V14h5.5c1.3,0,2.3,0.3,3,1c0.8,0.6,1.1,1.7,1.1,3C54.9,19.4,54.6,20.5,53.8,21.1 M51.8,16.6
			c-0.3-0.3-0.8-0.4-1.4-0.4h-2.5v3.7h2.5c0.6,0,1.1-0.2,1.4-0.5c0.3-0.3,0.5-0.8,0.5-1.4C52.3,17.3,52.1,16.9,51.8,16.6
			 M141.2,14.3c0.5,0.2,0.9,0.5,1.2,0.9c0.3,0.3,0.5,0.7,0.7,1.1c0.2,0.4,0.2,0.8,0.2,1.3c0,0.6-0.2,1.2-0.5,1.8
			c-0.3,0.6-0.8,1-1.5,1.2c0.6,0.2,1,0.6,1.2,1c0.2,0.4,0.4,1.1,0.4,2v0.8c0,0.6,0,1,0.1,1.2c0.1,0.3,0.2,0.6,0.5,0.7v0.3h-2.9
			c-0.1-0.3-0.1-0.5-0.2-0.7c-0.1-0.4-0.1-0.7-0.1-1.1l0-1.2c0-0.8-0.2-1.3-0.4-1.6c-0.3-0.3-0.8-0.4-1.6-0.4h-2.7v4.9H133V14h6.2
			C140,14,140.7,14.1,141.2,14.3 M135.5,16.2v3.4h3c0.6,0,1-0.1,1.3-0.2c0.5-0.2,0.8-0.7,0.8-1.4c0-0.8-0.3-1.3-0.8-1.5
			c-0.3-0.1-0.7-0.2-1.3-0.2H135.5z M26.7,13.3l-4.1,1.9l1.9,4l4.9-2.3C28.6,15.5,27.7,14.3,26.7,13.3 M26.8,12.6l3.6-1.7
			c-2.3-1.5-5.2-2-8-1.3C23.5,10.1,25.1,11,26.8,12.6 M22.4,14.6l3.9-1.8c-1.2-1.1-2.6-2.1-4.1-2.7c-0.2-0.1-0.4-0.2-0.6-0.2
			c-0.4,0.1-0.8,0.3-1.2,0.5L22.4,14.6z M31.2,23.3l-3.9,1.8l2.1,4.4c0.4-0.2,0.8-0.4,1.2-0.7c0-0.1,0.1-0.3,0.1-0.4
			C31.2,26.8,31.3,25,31.2,23.3 M35.3,21.5l-3.5,1.6c0.2,2.2-0.1,4.1-0.4,5.2C33.5,26.6,34.9,24.1,35.3,21.5 M31.7,22.5l3.6-1.7
			c0.1-1.5-0.1-3.1-0.7-4.7L30.5,18C31.2,19.6,31.5,21.1,31.7,22.5 M27.1,24.6l4.1-1.9c-0.2-1.5-0.6-3-1.1-4.5l-4.9,2.3L27.1,24.6z
			 M17.6,16.8c-0.1-1.7,0-3.5,0.5-5.2c-2.2,1.7-3.5,4.1-3.9,6.8L17.6,16.8z M18.8,21.8c-0.6-1.4-0.9-2.8-1.1-4.3l-3.5,1.6
			c-0.1,1.5,0.1,3.1,0.6,4.5L18.8,21.8z M22.1,27c-1.1-1.1-2-2.4-2.7-3.7l-4,1.9l-1.5,0.7c-0.1-0.2-0.2-0.4-0.3-0.6
			c-2.9-6.1-0.2-13.4,5.9-16.3c5.4-2.5,11.3-1.2,14.7,3.4L32.7,13c-0.5-0.7-1.1-1.2-1.8-1.7L27.2,13c0.9,1,1.8,2.1,2.6,3.6l5.1-2.4
			l0.5-0.2c0.1,0.3,0.3,0.5,0.4,0.8c2.9,6.1,0.2,13.4-5.9,16.3c-5.4,2.5-11.3,1.2-14.7-3.4l1.5-0.8c0.5,0.6,1.1,1.2,1.7,1.7L22.1,27
			z M26.8,30.4c-1.6-0.8-3.1-1.8-4.3-3L18.9,29C21.2,30.6,24,31.1,26.8,30.4 M23.1,27.1c1.2,1.2,2.7,2.2,4.2,2.9
			c0.2,0.1,0.3,0.1,0.4,0.2c0.4-0.1,0.8-0.3,1.1-0.4l-2.1-4.4L23.1,27.1z M19.9,23c0.7,1.4,1.6,2.6,2.7,3.7l3.9-1.8l-1.9-4.1
			L19.9,23z M18.2,17.2c0.1,1.5,0.5,2.9,1.1,4.3l4.7-2.2l-1.9-4L18.2,17.2z M18.9,11.1c-0.1,0.1-0.1,0.3-0.2,0.5
			c-0.5,1.6-0.7,3.3-0.6,4.9l3.7-1.7l-2-4.3C19.5,10.8,19.2,10.9,18.9,11.1"/>
	</g>
</g>
</svg>
