<?xml version="1.0" encoding="utf-8"?>
<!-- Generator: Adobe Illustrator 17.0.0, SVG Export Plug-In . SVG Version: 6.00 Build 0)  -->
<!DOCTYPE svg PUBLIC "-//W3C//DTD SVG 1.1//EN" "http://www.w3.org/Graphics/SVG/1.1/DTD/svg11.dtd">
<svg version="1.1" id="Layer_2" xmlns="http://www.w3.org/2000/svg" xmlns:xlink="http://www.w3.org/1999/xlink" x="0px" y="0px"
	 width="365.932px" height="128.115px" viewBox="0 0 365.932 128.115" enable-background="new 0 0 365.932 128.115"
	 xml:space="preserve">
<rect x="0" y="0" fill="#FFD200" width="365.932" height="128.115"/>
<g>
	<g>
		<g>
			<path fill="#141006" d="M115.103,100.797c-2.411,0-3.913-0.66-5.392-2.139l0.864-0.864c1.456,1.456,2.64,1.911,4.596,1.911
				c2.548,0,4.163-1.229,4.163-3.345c0-0.956-0.295-1.752-0.887-2.275c-0.592-0.5-1.024-0.659-2.344-0.864l-1.889-0.296
				c-1.229-0.182-2.207-0.592-2.889-1.183c-0.865-0.729-1.274-1.729-1.274-2.98c0-2.708,1.934-4.437,5.028-4.437
				c2.002,0,3.275,0.546,4.664,1.752l-0.797,0.796c-1.001-0.887-2.002-1.501-3.936-1.501c-2.344,0-3.754,1.296-3.754,3.344
				c0,0.933,0.274,1.639,0.842,2.116c0.568,0.478,1.502,0.864,2.412,1.001l1.751,0.272c1.524,0.228,2.207,0.501,2.89,1.069
				c0.887,0.728,1.41,1.843,1.41,3.14C120.563,99.045,118.47,100.797,115.103,100.797z"/>
			<path fill="#141006" d="M124.182,95.428c0,2.775,1.252,4.322,3.572,4.322c1.297,0,2.094-0.387,3.025-1.319l0.865,0.683
				c-1.115,1.114-2.139,1.684-3.959,1.684c-3.025,0-4.664-1.957-4.664-5.62c0-3.526,1.639-5.619,4.392-5.619
				c2.729,0,4.391,2.002,4.391,5.347v0.524H124.182z M130.257,92.425c-0.477-1.138-1.593-1.844-2.844-1.844
				s-2.366,0.706-2.845,1.844c-0.272,0.682-0.341,1.023-0.387,2.07h6.462C130.598,93.448,130.529,93.106,130.257,92.425z"/>
			<path fill="#141006" d="M138.494,106.029c-1.638,0-2.457-0.433-3.617-1.456l0.773-0.773c0.865,0.773,1.457,1.206,2.844,1.206
				c2.299,0,3.322-1.639,3.322-3.8V99.25c-0.955,1.273-2.025,1.547-3.254,1.547c-1.137,0-2.115-0.387-2.684-0.956
				c-1.115-1.114-1.411-2.935-1.411-4.664c0-1.729,0.296-3.549,1.411-4.663c0.568-0.569,1.547-0.956,2.684-0.956
				c1.229,0,2.299,0.274,3.254,1.547v-1.41h1.16v11.58C142.977,104.027,141.338,106.029,138.494,106.029z M138.723,90.581
				c-2.686,0-3.095,2.321-3.095,4.596c0,2.275,0.409,4.596,3.095,4.596c2.684,0,3.094-2.32,3.094-4.596
				C141.816,92.902,141.406,90.581,138.723,90.581z"/>
			<path fill="#141006" d="M154.081,100.66v-1.297c-0.819,0.956-1.911,1.434-3.231,1.434c-1.228,0-2.207-0.364-2.912-1.047
				c-0.727-0.705-1.138-1.752-1.138-3.049v-7.007h1.16v6.803c0,2.115,1.069,3.275,3.025,3.275c1.957,0,3.095-1.205,3.095-3.275
				v-6.803h1.16v10.966H154.081z"/>
			<path fill="#141006" d="M165.368,91.446c-0.66-0.66-1.161-0.865-2.071-0.865c-1.888,0-2.934,1.548-2.934,3.322v6.757h-1.16
				V89.694h1.16v1.456c0.637-1.023,1.91-1.593,3.207-1.593c1.047,0,1.865,0.274,2.639,1.047L165.368,91.446z"/>
			<path fill="#141006" d="M167.918,85.895v-1.433h1.433v1.433H167.918z M168.055,100.66V89.694h1.16v10.966H168.055z"/>
			<path fill="#141006" d="M179.885,100.66v-1.41c-0.955,1.273-2.024,1.547-3.253,1.547c-1.138,0-2.116-0.387-2.684-0.956
				c-1.115-1.114-1.41-2.935-1.41-4.664c0-1.729,0.295-3.549,1.41-4.663c0.568-0.569,1.547-0.956,2.684-0.956
				c1.229,0,2.298,0.274,3.253,1.547v-6.643h1.16v16.198H179.885z M176.791,90.581c-2.685,0-3.094,2.321-3.094,4.596
				c0,2.275,0.409,4.596,3.094,4.596c2.685,0,3.094-2.32,3.094-4.596C179.885,92.902,179.476,90.581,176.791,90.581z"/>
			<path fill="#141006" d="M191.445,100.66v-1.092c-0.934,0.933-1.798,1.229-3.346,1.229c-1.615,0-2.525-0.273-3.23-1.001
				c-0.5-0.523-0.796-1.32-0.796-2.139c0-2.002,1.434-3.162,3.822-3.162h3.55v-1.229c0-1.752-0.865-2.685-3.095-2.685
				c-1.547,0-2.343,0.388-3.026,1.389l-0.842-0.729c0.934-1.297,2.094-1.684,3.868-1.684c2.89,0,4.255,1.297,4.255,3.595v7.508
				H191.445z M191.445,95.428h-3.413c-1.889,0-2.798,0.751-2.798,2.207c0,1.456,0.887,2.138,2.865,2.138
				c1.002,0,1.957-0.091,2.73-0.842c0.41-0.387,0.615-1.069,0.615-2.093V95.428z"/>
			<path fill="#141006" d="M203.187,100.66v-1.41c-0.956,1.273-2.024,1.547-3.253,1.547c-1.139,0-2.116-0.387-2.686-0.956
				c-1.114-1.114-1.41-2.935-1.41-4.664c0-1.729,0.296-3.549,1.41-4.663c0.569-0.569,1.547-0.956,2.686-0.956
				c1.229,0,2.297,0.274,3.253,1.547v-6.643h1.16v16.198H203.187z M200.092,90.581c-2.684,0-3.094,2.321-3.094,4.596
				c0,2.275,0.41,4.596,3.094,4.596c2.686,0,3.095-2.32,3.095-4.596C203.187,92.902,202.777,90.581,200.092,90.581z"/>
			<path fill="#141006" d="M220.366,100.66v-1.41c-0.956,1.273-2.024,1.547-3.253,1.547c-1.139,0-2.116-0.387-2.686-0.956
				c-1.114-1.114-1.41-2.935-1.41-4.664c0-1.729,0.296-3.549,1.41-4.663c0.569-0.569,1.547-0.956,2.686-0.956
				c1.229,0,2.297,0.274,3.253,1.547v-6.643h1.16v16.198H220.366z M217.272,90.581c-2.684,0-3.094,2.321-3.094,4.596
				c0,2.275,0.41,4.596,3.094,4.596c2.686,0,3.095-2.32,3.095-4.596C220.366,92.902,219.957,90.581,217.272,90.581z"/>
			<path fill="#141006" d="M226.01,95.428c0,2.775,1.252,4.322,3.572,4.322c1.297,0,2.094-0.387,3.025-1.319l0.865,0.683
				c-1.115,1.114-2.139,1.684-3.959,1.684c-3.025,0-4.664-1.957-4.664-5.62c0-3.526,1.639-5.619,4.392-5.619
				c2.729,0,4.391,2.002,4.391,5.347v0.524H226.01z M232.085,92.425c-0.478-1.138-1.593-1.844-2.844-1.844
				c-1.251,0-2.366,0.706-2.845,1.844c-0.273,0.682-0.341,1.023-0.387,2.07h6.462C232.426,93.448,232.357,93.106,232.085,92.425z"/>
			<path fill="#141006" d="M246.467,100.797c-2.98,0-4.824-2.139-4.824-5.62c0-3.481,1.844-5.619,4.824-5.619
				c1.501,0,2.434,0.387,3.617,1.684l-0.797,0.729c-0.933-1.047-1.66-1.389-2.82-1.389c-1.229,0-2.253,0.501-2.912,1.456
				c-0.547,0.797-0.752,1.661-0.752,3.14c0,1.479,0.205,2.344,0.752,3.14c0.659,0.956,1.684,1.456,2.912,1.456
				c1.16,0,1.888-0.341,2.82-1.388l0.797,0.728C248.9,100.41,247.968,100.797,246.467,100.797z"/>
			<path fill="#141006" d="M259.527,99.591c-0.773,0.773-1.82,1.206-3.049,1.206c-1.228,0-2.275-0.433-3.049-1.206
				c-1.16-1.16-1.365-2.844-1.365-4.414c0-1.569,0.205-3.253,1.365-4.413c0.773-0.773,1.82-1.206,3.049-1.206
				c1.229,0,2.275,0.433,3.049,1.206c1.16,1.16,1.365,2.844,1.365,4.413C260.893,96.747,260.688,98.431,259.527,99.591z
				 M258.754,91.515c-0.592-0.592-1.389-0.934-2.275-0.934c-0.887,0-1.684,0.342-2.275,0.934c-0.91,0.91-0.979,2.389-0.979,3.662
				c0,1.274,0.068,2.753,0.979,3.663c0.592,0.592,1.389,0.933,2.275,0.933c0.887,0,1.684-0.341,2.275-0.933
				c0.91-0.91,0.978-2.389,0.978-3.663C259.732,93.903,259.664,92.425,258.754,91.515z"/>
			<path fill="#141006" d="M271.496,100.66v-6.803c0-2.115-1.069-3.276-3.025-3.276c-1.957,0-3.095,1.206-3.095,3.276v6.803h-1.16
				V89.694h1.16v1.297c0.819-0.956,1.911-1.434,3.23-1.434c1.228,0,2.207,0.364,2.912,1.047c0.728,0.705,1.138,1.752,1.138,3.049
				v7.007H271.496z"/>
			<path fill="#141006" d="M277.982,90.559v10.102h-1.161V90.559h-1.501v-0.864h1.501v-2.366c0-1.661,0.91-2.866,2.64-2.866h1.001
				v1.023h-0.796c-1.161,0-1.684,0.683-1.684,1.82v2.389h2.479v0.864H277.982z"/>
			<path fill="#141006" d="M282.807,85.895v-1.433h1.433v1.433H282.807z M282.943,100.66V89.694h1.16v10.966H282.943z"/>
			<path fill="#141006" d="M294.501,100.66v-1.092c-0.933,0.933-1.798,1.229-3.345,1.229c-1.615,0-2.525-0.273-3.23-1.001
				c-0.5-0.523-0.797-1.32-0.797-2.139c0-2.002,1.434-3.162,3.822-3.162h3.55v-1.229c0-1.752-0.864-2.685-3.095-2.685
				c-1.547,0-2.343,0.388-3.025,1.389l-0.842-0.729c0.933-1.297,2.094-1.684,3.867-1.684c2.89,0,4.255,1.297,4.255,3.595v7.508
				H294.501z M294.501,95.428h-3.413c-1.889,0-2.798,0.751-2.798,2.207c0,1.456,0.888,2.138,2.866,2.138
				c1.001,0,1.957-0.091,2.73-0.842c0.409-0.387,0.614-1.069,0.614-2.093V95.428z"/>
			<path fill="#141006" d="M306.812,100.66v-6.803c0-2.115-1.069-3.276-3.026-3.276c-1.956,0-3.094,1.206-3.094,3.276v6.803h-1.16
				V89.694h1.16v1.297c0.819-0.956,1.911-1.434,3.23-1.434c1.228,0,2.207,0.364,2.912,1.047c0.729,0.705,1.138,1.752,1.138,3.049
				v7.007H306.812z"/>
			<path fill="#141006" d="M310.817,100.66v-1.092l6.598-8.851h-6.233v-1.023h7.462v1.092l-6.62,8.85h6.62v1.023H310.817z"/>
			<path fill="#141006" d="M328.065,100.66v-1.092c-0.933,0.933-1.798,1.229-3.345,1.229c-1.615,0-2.525-0.273-3.23-1.001
				c-0.501-0.523-0.796-1.32-0.796-2.139c0-2.002,1.433-3.162,3.822-3.162h3.549v-1.229c0-1.752-0.864-2.685-3.095-2.685
				c-1.547,0-2.343,0.388-3.025,1.389l-0.842-0.729c0.933-1.297,2.093-1.684,3.867-1.684c2.89,0,4.255,1.297,4.255,3.595v7.508
				H328.065z M328.065,95.428h-3.413c-1.888,0-2.798,0.751-2.798,2.207c0,1.456,0.887,2.138,2.866,2.138
				c1.001,0,1.957-0.091,2.73-0.842c0.409-0.387,0.614-1.069,0.614-2.093V95.428z"/>
		</g>
	</g>
	<path fill="#141006" d="M277.345,41.32h5.983v17.25c0,1.929,0.23,3.338,0.688,4.225c0.714,1.576,2.27,2.363,4.665,2.363
		c2.383,0,3.93-0.787,4.645-2.363c0.459-0.887,0.688-2.296,0.688-4.225V41.32h5.982v17.25c0,2.983-0.465,5.306-1.392,6.968
		c-1.734,3.047-5.041,4.569-9.922,4.569c-4.882,0-8.195-1.522-9.939-4.569c-0.932-1.662-1.397-3.985-1.397-6.968V41.32
		 M265.838,50.079c-0.444-1.918-1.536-3.256-3.27-4.018c-0.966-0.42-2.042-0.627-3.228-0.627c-2.269,0-4.135,0.856-5.6,2.569
		c-1.455,1.701-2.179,4.265-2.179,7.692c0,3.451,0.789,5.897,2.37,7.33c1.579,1.433,3.375,2.151,5.389,2.151
		c1.977,0,3.594-0.565,4.857-1.695c1.261-1.143,2.038-2.632,2.332-4.474h-6.519v-4.684h11.735v15.061h-3.896l-0.597-3.505
		c-1.135,1.335-2.153,2.274-3.057,2.821c-1.556,0.949-3.466,1.427-5.735,1.427c-3.732,0-6.79-1.288-9.175-3.866
		c-2.483-2.59-3.726-6.131-3.726-10.624c0-4.542,1.252-8.186,3.765-10.929c2.509-2.742,5.829-4.113,9.96-4.113
		c3.578,0,6.453,0.909,8.618,2.723c2.178,1.805,3.43,4.056,3.747,6.761H265.838z M241.621,46.289h-14.908v5.961h13.685v4.874
		h-13.685v7.215h15.598v5.046h-21.352V41.32h20.662V46.289z M198.94,60.721c0.179,1.283,0.528,2.241,1.052,2.877
		c0.954,1.154,2.592,1.73,4.911,1.73c1.388,0,2.517-0.151,3.384-0.455c1.643-0.585,2.465-1.67,2.465-3.255
		c0-0.928-0.408-1.645-1.224-2.153c-0.817-0.495-2.097-0.933-3.844-1.313l-2.98-0.667c-2.932-0.659-4.957-1.376-6.08-2.151
		c-1.896-1.295-2.847-3.319-2.847-6.073c0-2.514,0.919-4.601,2.753-6.265c1.834-1.662,4.53-2.493,8.086-2.494
		c2.967,0,5.498,0.788,7.588,2.362c2.102,1.56,3.205,3.832,3.308,6.816h-5.66c-0.101-1.688-0.84-2.889-2.216-3.599
		c-0.917-0.47-2.057-0.704-3.422-0.706c-1.516,0-2.728,0.307-3.633,0.914c-0.903,0.609-1.356,1.461-1.356,2.55
		c0,1.005,0.446,1.752,1.339,2.249c0.573,0.329,1.798,0.717,3.669,1.162l4.856,1.161c2.128,0.507,3.732,1.187,4.816,2.037
		c1.682,1.319,2.523,3.23,2.523,5.73c0,2.564-0.988,4.697-2.965,6.397c-1.961,1.689-4.737,2.531-8.332,2.531
		c-3.67,0-6.555-0.829-8.659-2.492c-2.102-1.676-3.154-3.975-3.154-6.895H198.94z M185.924,66.89
		c-2.129,2.183-5.207,3.275-9.233,3.275c-4.026,0-7.104-1.093-9.231-3.275c-2.856-2.677-4.282-6.536-4.282-11.575
		c0-5.141,1.426-8.998,4.282-11.578c2.127-2.182,5.205-3.272,9.231-3.272c4.026,0,7.104,1.091,9.233,3.272
		c2.84,2.58,4.262,6.438,4.262,11.578C190.186,60.354,188.764,64.213,185.924,66.89 M182.234,62.626
		c1.376-1.714,2.064-4.151,2.064-7.312c0-3.147-0.688-5.578-2.064-7.293c-1.363-1.726-3.212-2.588-5.544-2.588
		c-2.331,0-4.19,0.856-5.581,2.569c-1.39,1.712-2.084,4.151-2.084,7.312c0,3.16,0.694,5.598,2.084,7.312
		c1.391,1.713,3.25,2.569,5.581,2.569C179.023,65.195,180.871,64.339,182.234,62.626 M154.463,42.042
		c1.07,0.446,1.973,1.101,2.713,1.963c0.611,0.71,1.095,1.497,1.451,2.36c0.358,0.863,0.535,1.846,0.537,2.953
		c0,1.33-0.338,2.646-1.015,3.938c-0.675,1.283-1.79,2.191-3.344,2.725c1.298,0.519,2.218,1.262,2.754,2.227
		c0.545,0.952,0.817,2.413,0.819,4.379v1.886c0,1.281,0.053,2.152,0.154,2.608c0.151,0.723,0.51,1.256,1.069,1.599v0.705h-6.48
		c-0.179-0.623-0.306-1.122-0.381-1.505c-0.154-0.786-0.236-1.591-0.252-2.417l-0.035-2.607c-0.026-1.793-0.357-2.984-0.994-3.58
		c-0.625-0.598-1.805-0.896-3.537-0.896h-6.077v11.005h-5.753V41.32h13.818C151.888,41.357,153.403,41.6,154.463,42.042
		 M141.847,46.193v7.541h6.672c1.323,0,2.317-0.152,2.981-0.457c1.17-0.533,1.756-1.588,1.756-3.162c0-1.699-0.566-2.842-1.7-3.428
		c-0.636-0.328-1.595-0.492-2.866-0.494H141.847z M129.02,57.235c-1.682,1.373-4.084,2.059-7.205,2.059h-5.984v10.091h-5.848V41.32
		h12.271c2.828,0,5.084,0.722,6.766,2.171c1.684,1.448,2.523,3.687,2.523,6.721C131.543,53.525,130.703,55.866,129.02,57.235
		 M124.547,47.126c-0.764-0.62-1.842-0.931-3.229-0.933h-5.487v8.264h5.487c1.388,0,2.466-0.335,3.229-1.01
		c0.779-0.672,1.166-1.737,1.166-3.197C125.713,48.79,125.326,47.75,124.547,47.126 M324.118,42.042
		c1.07,0.446,1.975,1.101,2.715,1.963c0.609,0.71,1.096,1.497,1.451,2.36c0.359,0.863,0.537,1.846,0.537,2.953
		c0,1.33-0.338,2.646-1.016,3.938c-0.674,1.283-1.789,2.191-3.342,2.725c1.301,0.519,2.217,1.262,2.75,2.227
		c0.547,0.952,0.82,2.413,0.822,4.379v1.886c0,1.281,0.051,2.152,0.152,2.608c0.152,0.723,0.512,1.256,1.07,1.599v0.705h-6.478
		c-0.178-0.623-0.309-1.122-0.381-1.505c-0.154-0.786-0.238-1.591-0.25-2.417l-0.037-2.607c-0.027-1.793-0.357-2.984-0.996-3.58
		c-0.623-0.598-1.803-0.896-3.535-0.896h-6.076v11.005h-5.754V41.32h13.816C321.544,41.357,323.06,41.6,324.118,42.042
		 M311.505,46.193v7.541h6.668c1.326,0,2.32-0.152,2.982-0.457c1.172-0.533,1.76-1.588,1.76-3.162c0-1.699-0.57-2.842-1.701-3.428
		c-0.639-0.328-1.596-0.492-2.869-0.494H311.505z M68.488,39.727l-9.072,4.212l4.14,8.845l10.862-5.048
		C72.834,44.805,70.832,42.094,68.488,39.727 M68.752,38.232l8.066-3.745c-5.164-3.408-11.529-4.418-17.872-2.849
		C61.275,32.657,65.024,34.67,68.752,38.232 M58.889,42.813l8.646-4.014c-2.711-2.537-5.832-4.624-9.256-6.094
		c-0.511-0.221-0.939-0.386-1.269-0.507c-0.876,0.29-1.748,0.631-2.614,1.021L58.889,42.813z M78.625,62.218l-8.75,4.066
		l4.584,9.791c0.968-0.463,1.888-0.983,2.759-1.557c0.087-0.27,0.185-0.587,0.286-0.948C78.539,69.885,78.895,66.035,78.625,62.218
		 M87.656,58.023l-7.82,3.633c0.404,5.017-0.317,9.143-0.979,11.685C83.732,69.513,86.824,63.972,87.656,58.023 M79.707,60.347
		l8.105-3.766c0.266-3.453-0.227-7.008-1.566-10.416l-9.164,4.26C78.555,53.928,79.346,57.282,79.707,60.347 M69.348,65.156
		l9.16-4.253c-0.37-3.415-1.235-6.779-2.557-9.952L65.066,56.01L69.348,65.156z M48.285,47.736c-0.27-3.881,0.101-7.799,1.18-11.546
		c-4.829,3.773-7.92,9.221-8.807,15.089L48.285,47.736z M50.819,58.699c-1.243-3.09-2.059-6.346-2.415-9.645l-7.92,3.676
		c-0.296,3.355,0.124,6.812,1.346,10.143L50.819,58.699z M58.254,70.31c-2.352-2.498-4.359-5.326-5.943-8.367l-9.001,4.185
		l-3.377,1.568c-0.238-0.442-0.464-0.893-0.679-1.353c-6.41-13.691-0.463-29.965,13.281-36.347
		c11.979-5.564,25.193-2.607,32.82,7.524l-3.408,1.666c-1.191-1.488-2.521-2.778-3.959-3.87l-8.295,3.852
		c2.082,2.146,4.119,4.794,5.859,8.043l11.354-5.272l1.193-0.514c0.327,0.585,0.636,1.184,0.925,1.801
		c6.407,13.691,0.461,29.961-13.282,36.347c-11.998,5.571-25.225,2.668-32.843-7.5l3.379-1.698c1.138,1.43,2.4,2.681,3.767,3.748
		L58.254,70.31z M68.85,78.047c-3.586-1.685-6.854-4.011-9.673-6.797l-7.984,3.709C56.272,78.408,62.558,79.487,68.85,78.047
		 M60.383,70.689c2.763,2.657,5.953,4.865,9.449,6.441c0.353,0.159,0.666,0.29,0.935,0.4c0.854-0.267,1.71-0.581,2.56-0.941
		l-4.582-9.784L60.383,70.689z M53.441,61.416c1.59,3.042,3.62,5.865,6.005,8.337l8.773-4.071l-4.282-9.143L53.441,61.416z
		 M49.601,48.498c0.313,3.31,1.112,6.579,2.351,9.675l10.475-4.864l-4.141-8.845L49.601,48.498z M51.164,34.979
		c-0.117,0.318-0.256,0.726-0.402,1.215c-1.069,3.558-1.469,7.281-1.262,10.979l8.256-3.833l-4.482-9.583
		C52.543,34.133,51.836,34.54,51.164,34.979"/>
</g>
</svg>
