<svg id="Layer_1" data-name="Layer 1" xmlns="http://www.w3.org/2000/svg" viewBox="0 0 160 50.6"><defs><style>.cls-1{fill:#fbd212;}.cls-2{fill:#13100a;}</style></defs><title>logo_prosegur_alarmas</title><rect class="cls-1" width="160" height="50.6"/><path class="cls-2" d="M120.23,13.76h2.68v7.72a4.28,4.28,0,0,0,.31,1.89,2.57,2.57,0,0,0,4.16,0,4.28,4.28,0,0,0,.31-1.89V13.76h2.68v7.72a6.43,6.43,0,0,1-.63,3.12q-1.16,2-4.44,2t-4.44-2a6.43,6.43,0,0,1-.63-3.12V13.76m-5.15,3.92a2.43,2.43,0,0,0-1.46-1.8,3.52,3.52,0,0,0-1.44-.28,3.15,3.15,0,0,0-2.51,1.15,5.19,5.19,0,0,0-1,3.44,4.25,4.25,0,0,0,1.06,3.28,3.48,3.48,0,0,0,2.41,1,3.11,3.11,0,0,0,2.17-.76,3.25,3.25,0,0,0,1-2h-2.91V19.58h5.25v6.74H116l-.27-1.57A5.8,5.8,0,0,1,114.34,26a4.77,4.77,0,0,1-2.56.64,5.37,5.37,0,0,1-4.11-1.73A6.58,6.58,0,0,1,106,20.17a6.91,6.91,0,0,1,1.69-4.89,5.74,5.74,0,0,1,4.45-1.84A5.81,5.81,0,0,1,116,14.65a4.56,4.56,0,0,1,1.68,3ZM104.25,16H97.58v2.67h6.12v2.18H97.58v3.23h7v2.26H95V13.76h9.24Zm-19.1,6.46a2.66,2.66,0,0,0,.47,1.29,2.74,2.74,0,0,0,2.2.77,4.91,4.91,0,0,0,1.52-.2,1.46,1.46,0,0,0,1.1-1.46,1.07,1.07,0,0,0-.55-1,5.89,5.89,0,0,0-1.72-.59L86.84,21a8.25,8.25,0,0,1-2.72-1,3.07,3.07,0,0,1-1.28-2.72,3.63,3.63,0,0,1,1.24-2.8,5.22,5.22,0,0,1,3.61-1.12,5.53,5.53,0,0,1,3.4,1.06,3.74,3.74,0,0,1,1.48,3.05H90a1.8,1.8,0,0,0-1-1.61,3.3,3.3,0,0,0-1.53-.32,2.88,2.88,0,0,0-1.62.41,1.31,1.31,0,0,0-.61,1.14,1.08,1.08,0,0,0,.6,1,7.47,7.47,0,0,0,1.64.52l2.18.52a5.71,5.71,0,0,1,2.15.91A3.08,3.08,0,0,1,93,22.64a3.62,3.62,0,0,1-1.33,2.87,5.58,5.58,0,0,1-3.73,1.13,6,6,0,0,1-3.87-1.12,3.72,3.72,0,0,1-1.41-3.08ZM79.33,25.2a6.54,6.54,0,0,1-8.26,0A6.75,6.75,0,0,1,69.15,20a6.63,6.63,0,0,1,1.92-5.18,5.49,5.49,0,0,1,4.13-1.46,5.49,5.49,0,0,1,4.13,1.46A6.66,6.66,0,0,1,81.24,20a6.78,6.78,0,0,1-1.91,5.18m-1.65-1.91A5.07,5.07,0,0,0,78.6,20a5.06,5.06,0,0,0-.92-3.26A3,3,0,0,0,75.2,15.6a3,3,0,0,0-2.5,1.15A5.09,5.09,0,0,0,71.77,20a5.07,5.07,0,0,0,.93,3.27,3,3,0,0,0,2.5,1.15,3,3,0,0,0,2.48-1.15M65.25,14.08a3.27,3.27,0,0,1,1.22.88A4,4,0,0,1,67.12,16a3.38,3.38,0,0,1,.24,1.32,3.7,3.7,0,0,1-.46,1.76,2.55,2.55,0,0,1-1.49,1.22,2.28,2.28,0,0,1,1.23,1,4.1,4.1,0,0,1,.37,2v.84a6.09,6.09,0,0,0,.07,1.17,1,1,0,0,0,.47.71v.32H64.66c-.09-.28-.14-.51-.18-.68a7.6,7.6,0,0,1-.11-1.08V23.39a2.28,2.28,0,0,0-.45-1.6,2.37,2.37,0,0,0-1.58-.4H59.61v4.93H57V13.76h6.18a6,6,0,0,1,2,.32m-5.64,1.86v3.37h3a3.31,3.31,0,0,0,1.34-.2,1.4,1.4,0,0,0,.78-1.42A1.55,1.55,0,0,0,64,16.16a2.83,2.83,0,0,0-1.28-.22Zm-5.74,4.94a5,5,0,0,1-3.22.92H48v4.52H45.35V13.76h5.49a4.46,4.46,0,0,1,3,1,3.77,3.77,0,0,1,1.13,3,3.84,3.84,0,0,1-1.13,3.14m-2-4.52a2.22,2.22,0,0,0-1.45-.42H48v3.7h2.45a2.12,2.12,0,0,0,1.45-.45,1.79,1.79,0,0,0,.52-1.43,1.68,1.68,0,0,0-.52-1.4m89.29-2.28a3.24,3.24,0,0,1,1.21.88A3.74,3.74,0,0,1,143,16a3.38,3.38,0,0,1,.24,1.32,3.81,3.81,0,0,1-.45,1.76,2.54,2.54,0,0,1-1.5,1.22,2.21,2.21,0,0,1,1.23,1,4,4,0,0,1,.37,2v.84a7.08,7.08,0,0,0,.07,1.17,1,1,0,0,0,.48.71v.32h-2.9c-.08-.28-.14-.51-.17-.68a5.49,5.49,0,0,1-.11-1.08l0-1.17a2.28,2.28,0,0,0-.44-1.6,2.38,2.38,0,0,0-1.59-.4h-2.71v4.93h-2.58V13.76h6.18a6,6,0,0,1,2,.32m-5.64,1.86v3.37h3a3.25,3.25,0,0,0,1.33-.2,1.4,1.4,0,0,0,.79-1.42,1.55,1.55,0,0,0-.76-1.53,2.86,2.86,0,0,0-1.28-.22ZM26.79,13.05l-4.06,1.88,1.85,4,4.86-2.26a15.75,15.75,0,0,0-2.65-3.58m.12-.67,3.61-1.68a10,10,0,0,0-8-1.27,15.16,15.16,0,0,1,4.39,3m-4.42,2,3.87-1.8a14.29,14.29,0,0,0-4.14-2.72c-.23-.1-.42-.18-.57-.23a11.33,11.33,0,0,0-1.17.46Zm8.83,8.68-3.91,1.82,2.05,4.38a10.57,10.57,0,0,0,1.23-.7c0-.12.09-.26.13-.42a14.76,14.76,0,0,0,.5-5.08m4-1.88-3.49,1.63a16.12,16.12,0,0,1-.44,5.23,10.61,10.61,0,0,0,3.93-6.86m-3.55,1,3.62-1.68a10.46,10.46,0,0,0-.7-4.66l-4.1,1.9a16.33,16.33,0,0,1,1.18,4.44m-4.64,2.15,4.1-1.9a15.93,15.93,0,0,0-1.14-4.45l-4.87,2.26Zm-9.42-7.79a14.8,14.8,0,0,1,.53-5.17,10.57,10.57,0,0,0-3.94,6.76Zm1.13,4.91a16.59,16.59,0,0,1-1.08-4.32l-3.54,1.64a10.61,10.61,0,0,0,.6,4.54Zm3.33,5.19A17,17,0,0,1,19.55,23l-4,1.87-1.51.7-.3-.61A12.21,12.21,0,0,1,19.65,8.69a11.77,11.77,0,0,1,14.69,3.37l-1.53.74A10.32,10.32,0,0,0,31,11.07L27.33,12.8A15.94,15.94,0,0,1,30,16.4L35,14l.53-.23c.15.26.29.53.42.8A12.22,12.22,0,0,1,30,30.87c-5.36,2.5-11.28,1.2-14.69-3.35l1.51-.76a10.32,10.32,0,0,0,1.69,1.68ZM27,30.19a15.55,15.55,0,0,1-4.33-3l-3.57,1.66A9.94,9.94,0,0,0,27,30.19M23.16,26.9a15,15,0,0,0,4.23,2.88l.42.18q.57-.18,1.14-.42L26.9,25.16Zm-3.1-4.15a16.21,16.21,0,0,0,2.68,3.73l3.93-1.82-1.92-4.09ZM18.34,17a15.85,15.85,0,0,0,1.05,4.33l4.69-2.18-1.86-4Zm.7-6c-.05.14-.12.33-.18.55a14.29,14.29,0,0,0-.57,4.91L22,14.66l-2-4.28a9.57,9.57,0,0,0-.94.54"/><path class="cls-2" d="M89.29,32.72h2L94.21,41H92.32l-.55-1.71H88.71L88.14,41H86.32Zm-.11,5.18h2.13l-1-3.28Z"/><path class="cls-2" d="M95.26,32.72H97v6.83h4.16V41h-5.9Z"/><path class="cls-2" d="M104.71,32.72h2l3,8.32h-1.89l-.55-1.71h-3.06L103.56,41h-1.82Zm-.12,5.18h2.13l-1-3.28Z"/><path class="cls-2" d="M116,32.94a2,2,0,0,1,.78.58,2.89,2.89,0,0,1,.42.7,2.33,2.33,0,0,1,.15.87,2.48,2.48,0,0,1-.3,1.17,1.69,1.69,0,0,1-1,.81,1.5,1.5,0,0,1,.82.66,2.7,2.7,0,0,1,.24,1.3v.56a4.14,4.14,0,0,0,.05.77.67.67,0,0,0,.32.47V41h-1.92c-.06-.18-.09-.33-.12-.44a4.39,4.39,0,0,1-.07-.72v-.77A1.58,1.58,0,0,0,115.1,38a1.42,1.42,0,0,0-1-.26h-1.69V41h-1.7V32.72h4A3.41,3.41,0,0,1,116,32.94Zm-3.59,1.23V36.4h1.87a2,2,0,0,0,.83-.13.94.94,0,0,0,.5-.94,1.06,1.06,0,0,0-.48-1,1.71,1.71,0,0,0-.8-.14Z"/><path class="cls-2" d="M124.55,32.72h2.5V41h-1.62V34.73c0-.29,0-.51,0-.67l-1.58,7h-1.69l-1.56-7v.67c0,.29,0,.52,0,.68V41H119V32.72h2.53L123,39.26Z"/><path class="cls-2" d="M131,32.72h2L136,41h-1.89l-.55-1.71h-3.06L129.89,41h-1.82Zm-.12,5.18h2.13L132,34.62Z"/><path class="cls-2" d="M138.26,38.47a1.67,1.67,0,0,0,.32.86,1.85,1.85,0,0,0,1.48.51,3.17,3.17,0,0,0,1-.14,1,1,0,0,0,.74-1,.71.71,0,0,0-.36-.64,3.76,3.76,0,0,0-1.16-.39l-.9-.2a5.5,5.5,0,0,1-1.82-.63,2,2,0,0,1-.84-1.81,2.37,2.37,0,0,1,.82-1.85,3.47,3.47,0,0,1,2.42-.74,3.69,3.69,0,0,1,2.27.7,2.44,2.44,0,0,1,1,2h-1.67a1.19,1.19,0,0,0-.67-1.07,2.28,2.28,0,0,0-1-.21,2,2,0,0,0-1.1.27.85.85,0,0,0-.41.76.72.72,0,0,0,.4.67,5.34,5.34,0,0,0,1.11.34l1.46.35a3.75,3.75,0,0,1,1.44.6,2.05,2.05,0,0,1,.74,1.7,2.37,2.37,0,0,1-.88,1.89,3.69,3.69,0,0,1-2.49.76,4.05,4.05,0,0,1-2.59-.75,2.46,2.46,0,0,1-.94-2Z"/></svg>