<?xml version="1.0" encoding="utf-8"?>
<!-- Generator: Adobe Illustrator 21.0.0, SVG Export Plug-In . SVG Version: 6.00 Build 0)  -->
<svg version="1.1" id="Layer_1" xmlns="http://www.w3.org/2000/svg" xmlns:xlink="http://www.w3.org/1999/xlink" x="0px" y="0px"
	 viewBox="0 0 45.9 45.9" style="enable-background:new 0 0 45.9 45.9;" xml:space="preserve">
<style type="text/css">
	.st0{fill:#FCCC12;}
	.st1{fill:#13100A;}
</style>
<g>
	<circle class="st0" cx="23" cy="23" r="23"/>
	<g>
		<path class="st1" d="M25.6,13.7L20,16.3l2.6,5.5l6.7-3.1C28.3,16.8,27.1,15.1,25.6,13.7 M25.8,12.7l5-2.3c-3.2-2.1-7.1-2.7-11-1.8
			C21.2,9.3,23.5,10.6,25.8,12.7 M19.7,15.6l5.3-2.5c-1.7-1.6-3.6-2.9-5.7-3.8C19,9.2,18.8,9.1,18.6,9C18,9.2,17.5,9.4,17,9.7
			L19.7,15.6z M31.9,27.5L26.5,30l2.8,6c0.6-0.3,1.2-0.6,1.7-1c0.1-0.2,0.1-0.4,0.2-0.6C31.8,32.3,32.1,29.9,31.9,27.5 M37.5,24.9
			l-4.8,2.2c0.2,3.1-0.2,5.6-0.6,7.2C35,32,36.9,28.6,37.5,24.9 M32.6,26.4l5-2.3c0.2-2.1-0.1-4.3-1-6.4l-5.6,2.6
			C31.8,22.4,32.3,24.5,32.6,26.4 M26.2,29.3l5.6-2.6c-0.2-2.1-0.8-4.2-1.6-6.1l-6.7,3.1L26.2,29.3z M13.2,18.6
			c-0.2-2.4,0.1-4.8,0.7-7.1c-3,2.3-4.9,5.7-5.4,9.3L13.2,18.6z M14.7,25.4c-0.8-1.9-1.3-3.9-1.5-5.9l-4.9,2.3
			c-0.2,2.1,0.1,4.2,0.8,6.3L14.7,25.4z M19.3,32.5c-1.4-1.5-2.7-3.3-3.7-5.2l-5.5,2.6l-2.1,1c-0.1-0.3-0.3-0.6-0.4-0.8
			c-4-8.4-0.3-18.5,8.2-22.4c7.4-3.4,15.5-1.6,20.2,4.6l-2.1,1c-0.7-0.9-1.6-1.7-2.4-2.4l-5.1,2.4c1.3,1.3,2.5,3,3.6,5l7-3.2
			l0.7-0.3c0.2,0.4,0.4,0.7,0.6,1.1c3.9,8.4,0.3,18.5-8.2,22.4c-7.4,3.4-15.5,1.6-20.2-4.6l2.1-1c0.7,0.9,1.5,1.7,2.3,2.3L19.3,32.5
			z M25.9,37.3c-2.2-1-4.2-2.5-6-4.2L15,35.4C18.1,37.5,22,38.2,25.9,37.3 M20.6,32.8c1.7,1.6,3.7,3,5.8,4c0.2,0.1,0.4,0.2,0.6,0.2
			c0.5-0.2,1.1-0.4,1.6-0.6l-2.8-6L20.6,32.8z M16.4,27c1,1.9,2.2,3.6,3.7,5.1l5.4-2.5L22.8,24L16.4,27z M14,19.1
			c0.2,2,0.7,4.1,1.4,6l6.5-3l-2.6-5.5L14,19.1z M15,10.7c-0.1,0.2-0.2,0.4-0.2,0.7c-0.7,2.2-0.9,4.5-0.8,6.8l5.1-2.4L16.3,10
			C15.8,10.2,15.4,10.5,15,10.7"/>
	</g>
</g>
</svg>
